<svg xmlns="http://www.w3.org/2000/svg" viewBox="0 0 242424 333334" shape-rendering="geometricPrecision" text-rendering="geometricPrecision" image-rendering="optimizeQuality" fill-rule="evenodd" clip-rule="evenodd"><defs><mask id="c"><linearGradient id="a" gradientUnits="userSpaceOnUse" x1="200291" y1="91174.4" x2="200291" y2="176107"><stop offset="0" stop-opacity=".02" stop-color="#fff"/><stop offset="1" stop-opacity=".2" stop-color="#fff"/></linearGradient><path fill="url(#a)" d="M158007 84111h84568v99059h-84568z"/></mask><mask id="e"><radialGradient id="b" gradientUnits="userSpaceOnUse" cx="0" cy="0" r="0" fx="0" fy="0"><stop offset="0" stop-opacity="0" stop-color="#fff"/><stop offset="1" stop-opacity=".098" stop-color="#fff"/></radialGradient><path fill="url(#b)" d="M-150-150h242724v333634H-150z"/></mask><radialGradient id="f" gradientUnits="userSpaceOnUse" cx="9696.85" cy="10000" r="166667" fx="9696.85" fy="10000"><stop offset="0" stop-color="#fff"/><stop offset="1" stop-color="#fff"/></radialGradient><linearGradient id="d" gradientUnits="userSpaceOnUse" x1="200291" y1="94137" x2="200291" y2="173145"><stop offset="0" stop-color="#311a91"/><stop offset="1" stop-color="#311a91"/></linearGradient></defs><g fill-rule="nonzero"><path d="M151516 0H22726C10228 0 0 10228 0 22727v287879c0 12494 10228 22728 22726 22728h196971c12494 0 22728-10233 22728-22728V90909l-53037-37880L151516 1z" fill="#673ab6"/><path d="M98482 257569h83333v-15144H98482v15144zm0-90904v15151h83333v-15151H98482zm-18937 7578c0 6268-5094 11363-11365 11363-6269 0-11363-5096-11363-11363 0-6270 5094-11365 11363-11365 6270 0 11365 5094 11365 11365zm0 37872c0 6272-5094 11365-11365 11365-6269 0-11363-5093-11363-11365 0-6266 5094-11363 11363-11363 6270 0 11365 5097 11365 11363zm0 37881c0 6273-5094 11365-11365 11365-6269 0-11363-5092-11363-11365 0-6272 5094-11363 11363-11363 6270 0 11365 5091 11365 11363zm18937-30299h83333v-15155H98482v15155z" fill="#f0f0f0"/><path mask="url(#c)" fill="url(#d)" d="M158158 84261l84266 84242V90909z"/><path d="M151516 0v68181c0 12557 10167 22728 22726 22728h68182L151516 0z" fill="#b39cdb"/><path d="M22726 0C10228 0 0 10228 0 22727v1893C0 12122 10228 1894 22726 1894h128790V1H22726z" fill="#fff" fill-opacity=".2"/><path d="M219697 331433H22726C10228 331433 0 321209 0 308705v1900c0 12494 10228 22728 22726 22728h196971c12494 0 22728-10233 22728-22728v-1900c0 12504-10233 22728-22728 22728z" fill="#311a91" fill-opacity=".2"/><path d="M174243 90909c-12559 0-22726-10171-22726-22728v1893c0 12556 10167 22728 22726 22728h68182v-1893h-68182z" fill="#311a91" fill-opacity=".102"/><path d="M151516 0H22726C10228 0 0 10228 0 22727v287879c0 12494 10228 22728 22726 22728h196971c12494 0 22728-10233 22728-22728V90909L151517 0z" mask="url(#e)" fill="url(#f)"/></g></svg>